<svg id="Capa_1" enable-background="new 0 0 512 512" height="512" viewBox="0 0 512 512" width="512" xmlns="http://www.w3.org/2000/svg" xmlns:xlink="http://www.w3.org/1999/xlink"><linearGradient id="SVGID_1_" gradientUnits="userSpaceOnUse" x1="256" x2="256" y1="458" y2="0"><stop offset="0" stop-color="#fd5900"/><stop offset="1" stop-color="#ffde00"/></linearGradient><linearGradient id="SVGID_2_" gradientUnits="userSpaceOnUse" x1="255.826" x2="255.826" y1="512" y2="224.999"><stop offset="0" stop-color="#ffe59a"/><stop offset="1" stop-color="#ffffd5"/></linearGradient><g><g><g><path d="m61 225h-30c-8.284 0-15 6.716-15 15s6.716 15 15 15h30c8.284 0 15-6.716 15-15s-6.716-15-15-15zm420 0h-30c-8.284 0-15 6.716-15 15s6.716 15 15 15h30c8.284 0 15-6.716 15-15s-6.716-15-15-15zm-335.49-146.375c4.155 7.196 13.337 9.621 20.49 5.49 7.174-4.142 9.632-13.316 5.49-20.49l-15-25.981c-4.141-7.174-13.316-9.633-20.49-5.49-7.174 4.142-9.632 13.316-5.49 20.49zm-50.885 50.885-25.981-15c-7.174-4.143-16.349-1.684-20.49 5.49-4.142 7.174-1.684 16.348 5.49 20.49l25.981 15c7.15 4.128 16.335 1.708 20.49-5.49 4.142-7.174 1.684-16.348-5.49-20.49zm251.375-45.395c7.149 4.128 16.333 1.709 20.49-5.49l15-25.981c4.143-7.174 1.685-16.348-5.49-20.49-7.175-4.143-16.349-1.684-20.49 5.49l-15 25.981c-4.143 7.174-1.685 16.348 5.49 20.49zm117.846 35.885c-4.143-7.175-13.315-9.632-20.49-5.49l-25.98 15c-7.175 4.142-9.633 13.316-5.49 20.49 4.155 7.197 13.336 9.62 20.49 5.49l25.98-15c7.174-4.142 9.632-13.316 5.49-20.49zm-207.846-60c8.284 0 15-6.716 15-15v-30c0-8.284-6.716-15-15-15s-15 6.716-15 15v30c0 8.284 6.716 15 15 15zm0 30c-82.71 0-150 67.29-150 150 0 54.53 25.97 83.23 48.88 108.56 22.06 24.4 41.12 45.47 41.12 88.44l62 21 58-21c0-42.97 19.06-64.04 41.12-88.44 22.91-25.33 48.88-54.03 48.88-108.56 0-82.71-67.29-150-150-150z" fill="url(#SVGID_1_)"/></g></g><g><g><path d="m342.539 230.63c-5.176-6.469-14.617-7.517-21.083-2.343l-28.13 22.504-28.129-22.504c-5.479-4.382-13.263-4.382-18.741 0l-28.129 22.504-28.129-22.504c-6.47-5.176-15.909-4.126-21.083 2.343-5.175 6.469-4.126 15.908 2.342 21.083l37.5 30c5.479 4.382 13.263 4.382 18.741 0l28.129-22.504 28.13 22.504c5.479 4.383 13.261 4.382 18.74 0l37.5-30c6.468-5.175 7.517-14.615 2.342-21.083zm-146.713 221.37c0 5.18.66 10.2 1.9 15 6.68 25.85 30.2 45 58.1 45s51.42-19.15 58.1-45c1.24-4.8 1.9-9.82 1.9-15v-15h-120z" fill="url(#SVGID_2_)"/></g></g></g></svg>