<?xml version="1.0" encoding="UTF-8" standalone="no"?>
<!-- Created with Inkscape (http://www.inkscape.org/) -->

<svg
   xmlns:dc="http://purl.org/dc/elements/1.1/"
   xmlns:cc="http://creativecommons.org/ns#"
   xmlns:rdf="http://www.w3.org/1999/02/22-rdf-syntax-ns#"
   xmlns:svg="http://www.w3.org/2000/svg"
   xmlns="http://www.w3.org/2000/svg"
   xmlns:sodipodi="http://sodipodi.sourceforge.net/DTD/sodipodi-0.dtd"
   xmlns:inkscape="http://www.inkscape.org/namespaces/inkscape"
   width="136.77037mm"
   height="129.735mm"
   viewBox="0 0 136.77037 129.735"
   version="1.1"
   id="svg8"
   inkscape:version="0.92.4 (5da689c313, 2019-01-14)"
   sodipodi:docname="microBlock Logo-microText.gray.svg"
   inkscape:export-filename="D:\GitHub\microBlock-resource\logo\microBlock Logo.png"
   inkscape:export-xdpi="185.8"
   inkscape:export-ydpi="185.8">
  <defs
     id="defs2" />
  <sodipodi:namedview
     id="base"
     pagecolor="#ffffff"
     bordercolor="#666666"
     borderopacity="1.0"
     inkscape:pageopacity="0.0"
     inkscape:pageshadow="2"
     inkscape:zoom="1.4"
     inkscape:cx="288.09044"
     inkscape:cy="278.54952"
     inkscape:document-units="mm"
     inkscape:current-layer="layer1"
     showgrid="false"
     inkscape:window-width="1920"
     inkscape:window-height="1001"
     inkscape:window-x="-9"
     inkscape:window-y="-9"
     inkscape:window-maximized="1"
     showguides="true"
     inkscape:guide-bbox="true">
    <sodipodi:guide
       position="47.862718,121.18237"
       orientation="0,1"
       id="guide836"
       inkscape:locked="false" />
    <sodipodi:guide
       position="63.443106,129.72595"
       orientation="0,1"
       id="guide838"
       inkscape:locked="false" />
    <sodipodi:guide
       position="28.029893,7.7174077"
       orientation="0,1"
       id="guide840"
       inkscape:locked="false" />
    <sodipodi:guide
       position="99.156998,20.880432"
       orientation="1,0"
       id="guide842"
       inkscape:locked="false" />
    <sodipodi:guide
       position="99.178454,28.172593"
       orientation="0,1"
       id="guide844"
       inkscape:locked="false" />
    <sodipodi:guide
       position="39.689526,48.24215"
       orientation="1,0"
       id="guide846"
       inkscape:locked="false" />
    <sodipodi:guide
       position="139.94569,75.547992"
       orientation="0,1"
       id="guide850"
       inkscape:locked="false" />
    <sodipodi:guide
       position="89.911089,67.374256"
       orientation="0,1"
       id="guide852"
       inkscape:locked="false" />
  </sodipodi:namedview>
  <metadata
     id="metadata5">
    <rdf:RDF>
      <cc:Work
         rdf:about="">
        <dc:format>image/svg+xml</dc:format>
        <dc:type
           rdf:resource="http://purl.org/dc/dcmitype/StillImage" />
        <dc:title></dc:title>
      </cc:Work>
    </rdf:RDF>
  </metadata>
  <g
     inkscape:label="Layer 1"
     inkscape:groupmode="layer"
     id="layer1"
     transform="translate(-11.471119,-85.322593)"
     style="opacity:0.97">
    <path
       style="fill:#e0e0e0;fill-opacity:1;stroke:none;stroke-width:0.99999994px;stroke-linecap:butt;stroke-linejoin:miter;stroke-opacity:1"
       d="M 495.05469 0 L 224.33398 0.03515625 L 180.89844 32.324219 L 157.91797 32.324219 L 112.08203 0.03515625 L 52.384766 0.03515625 C 21.564245 0.03515625 0.35600542 33.57338 0.08203125 62.628906 C -0.1919467 91.68444 0.33699818 383.81521 0.08203125 406.08203 C -0.17293568 428.34885 26.202129 461.16797 56.613281 461.16797 L 112.20508 461.16797 L 154.33398 490.33789 L 177.33203 490.28125 L 220.29492 461.16797 L 374.7207 461.16797 L 374.84766 383.85742 L 207.23828 383.85742 C 182.47678 383.85742 150.00781 359.06727 150.00781 332.62891 C 150.00781 306.19051 149.89601 297.05278 150.00781 265.9707 C 150.11961 234.88862 174.9044 204.80078 200.86133 204.80078 L 263.08789 204.80078 L 307.32617 235.69336 L 332.72266 235.69336 L 374.76562 204.80078 L 495.22852 204.80078 L 495.05469 0 z M 189.38281 56.220703 L 200.42383 56.220703 L 200.42383 68.917969 L 189.38281 68.917969 L 189.38281 56.220703 z M 114.16992 79.53125 C 118.99588 79.53125 122.94437 80.533109 126.01172 82.537109 C 129.11996 84.541109 131.30638 87.342386 132.57422 90.941406 C 137.72736 83.334386 144.43588 79.53125 152.69727 79.53125 C 159.15914 79.53125 164.12719 81.330667 167.60352 84.929688 C 171.07984 88.48781 172.81836 93.988212 172.81836 101.43164 L 172.81836 146.1543 L 161.83789 146.1543 L 161.83789 105.11328 C 161.83789 100.6963 161.46859 97.527673 160.73242 95.605469 C 160.03716 93.642367 158.75045 92.0669 156.86914 90.880859 C 154.98783 89.694819 152.77786 89.101562 150.24219 89.101562 C 145.66162 89.101562 141.85848 90.635778 138.83203 93.703125 C 135.80558 96.729574 134.29297 101.59547 134.29297 108.30273 L 134.29297 146.1543 L 123.25 146.1543 L 123.25 103.82422 C 123.25 98.916464 122.35029 95.237081 120.55078 92.783203 C 118.75127 90.329326 115.80659 89.101562 111.7168 89.101562 C 108.60855 89.101562 105.72477 89.918769 103.06641 91.554688 C 100.44894 93.190606 98.547369 95.583279 97.361328 98.732422 C 96.175287 101.88156 95.582031 106.42136 95.582031 112.35156 L 95.582031 146.1543 L 84.541016 146.1543 L 84.541016 81.003906 L 94.417969 81.003906 L 94.417969 90.144531 C 96.462867 86.954491 99.181641 84.398766 102.57617 82.476562 C 105.9707 80.513461 109.83474 79.53125 114.16992 79.53125 z M 243.61328 79.53125 C 250.68863 79.53125 256.47583 81.330667 260.97461 84.929688 C 265.47338 88.48781 268.35521 93.55996 269.62305 100.14453 L 258.88867 101.80078 C 257.86622 97.4247 256.0452 94.132318 253.42773 91.923828 C 250.85116 89.715338 247.72378 88.611328 244.04297 88.611328 C 238.48085 88.611328 233.9607 90.615047 230.48438 94.623047 C 227.00805 98.590149 225.26953 104.88811 225.26953 113.51758 C 225.26953 122.26974 226.94715 128.63055 230.30078 132.59766 C 233.65441 136.56476 238.03116 138.54688 243.42969 138.54688 C 247.76487 138.54688 251.38335 137.21891 254.28711 134.56055 C 257.19086 131.90218 259.03153 127.81224 259.80859 122.29102 L 270.66602 123.70117 C 269.47997 131.1855 266.43315 137.05521 261.52539 141.30859 C 256.65853 145.52108 250.66703 147.62695 243.55078 147.62695 C 234.63503 147.62695 227.45896 144.72353 222.01953 138.91602 C 216.621 133.06761 213.92187 124.70308 213.92188 113.82422 C 213.92188 106.78977 215.08679 100.63521 217.41797 95.359375 C 219.74915 90.083539 223.28709 86.137 228.03125 83.519531 C 232.81631 80.861164 238.01026 79.53125 243.61328 79.53125 z M 304.03906 79.53125 C 307.76078 79.53125 311.54426 80.717762 315.38867 83.089844 L 311.58594 93.333984 C 308.88667 91.738964 306.18755 90.941406 303.48828 90.941406 C 301.0753 90.941406 298.90658 91.678064 296.98438 93.150391 C 295.06217 94.581819 293.69296 96.585538 292.875 99.162109 C 291.64806 103.08831 291.0332 107.38255 291.0332 112.04492 L 291.0332 146.1543 L 279.99219 146.1543 L 279.99219 81.003906 L 289.92969 81.003906 L 289.92969 90.880859 C 292.46536 86.25939 294.79713 83.212561 296.92383 81.740234 C 299.09142 80.267908 301.46249 79.53125 304.03906 79.53125 z M 348.51562 79.53125 C 357.47228 79.53125 364.7937 82.475929 370.47852 88.365234 C 376.16333 94.213642 379.00586 102.31102 379.00586 112.6582 C 379.00586 121.04228 377.73685 127.64865 375.20117 132.47461 C 372.7064 137.25967 369.04666 140.9803 364.2207 143.63867 C 359.43564 146.29704 354.20044 147.62695 348.51562 147.62695 C 339.39538 147.62695 332.01306 144.70192 326.36914 138.85352 C 320.76612 133.00511 317.96484 124.58163 317.96484 113.58008 C 317.96484 101.51518 321.31813 92.578994 328.02539 86.771484 C 333.62841 81.945525 340.45873 79.53125 348.51562 79.53125 z M 189.38281 81.003906 L 200.42383 81.003906 L 200.42383 146.1543 L 189.38281 146.1543 L 189.38281 81.003906 z M 348.51562 88.671875 C 342.9944 88.671875 338.41336 90.738447 334.77344 94.869141 C 331.13352 98.999834 329.31445 105.23689 329.31445 113.58008 C 329.31445 121.92326 331.13352 128.17997 334.77344 132.35156 C 338.41336 136.48226 342.9944 138.54688 348.51562 138.54688 C 353.99595 138.54688 358.55735 136.46065 362.19727 132.28906 C 365.83718 128.11747 367.65625 121.75861 367.65625 113.21094 C 367.65625 105.15404 365.81558 99.060381 362.13477 94.929688 C 358.49485 90.758096 353.95505 88.671875 348.51562 88.671875 z "
       transform="matrix(0.26458333,0,0,0.26458333,11.471119,85.322593)"
       id="path826" />
    <text
       xml:space="preserve"
       style="font-style:normal;font-variant:normal;font-weight:normal;font-stretch:normal;font-size:36.29860687px;line-height:1.25;font-family:Arial;-inkscape-font-specification:Arial;letter-spacing:0px;word-spacing:0px;fill:#e0e0e0;fill-opacity:1;stroke:none;stroke-width:0.90746516;"
       x="59.550945"
       y="177.5018"
       id="text834"><tspan
         sodipodi:role="line"
         id="tspan832"
         x="59.550945"
         y="177.5018"
         style="fill:#e0e0e0;fill-opacity:1;stroke-width:0.90746516;">Block</tspan></text>
  </g>
</svg>
